<svg xmlns="http://www.w3.org/2000/svg" viewBox="0 0 512 512">
  <defs>
    <linearGradient id="g" x1="0" y1="0" x2="1" y2="1">
      <stop offset="0" stop-color="#2563eb"/>
      <stop offset="1" stop-color="#0ea5e9"/>
    </linearGradient>
  </defs>
  <rect width="512" height="512" rx="96" fill="#0b1220"/>
  <rect x="64" y="64" width="384" height="384" rx="72" fill="url(#g)" opacity="0.15"/>
  <path d="M160 176h192a24 24 0 0 1 24 24v144a24 24 0 0 1-24 24H160a24 24 0 0 1-24-24V200a24 24 0 0 1 24-24z" fill="url(#g)"/>
  <path d="M196 236h120a16 16 0 0 1 0 32H196a16 16 0 0 1 0-32zm0 64h96a16 16 0 0 1 0 32h-96a16 16 0 0 1 0-32z" fill="#e2e8f0"/>
</svg>
